<!DOCTYPE svg PUBLIC "-//W3C//DTD SVG 1.1//EN" "http://www.w3.org/Graphics/SVG/1.1/DTD/svg11.dtd">
<!-- Uploaded to: SVG Repo, www.svgrepo.com, Transformed by: SVG Repo Mixer Tools -->
<svg fill="#ffffff" width="800px" height="800px" viewBox="0 0 24 24" id="payment-error" data-name="Flat Color" xmlns="http://www.w3.org/2000/svg" class="icon flat-color">
<g id="SVGRepo_bgCarrier" stroke-width="0"/>
<g id="SVGRepo_tracerCarrier" stroke-linecap="round" stroke-linejoin="round"/>
<g id="SVGRepo_iconCarrier">
<rect id="primary" x="2" y="4" width="20" height="16" rx="2" style="fill: #000000;"/>
<path id="secondary" d="M19,15.5a1.49,1.49,0,0,1-2.5,1.11,1.5,1.5,0,1,1,0-2.22A1.49,1.49,0,0,1,19,15.5ZM7,14a1.5,1.5,0,1,0,1.5,1.5A1.5,1.5,0,0,0,7,14Zm1-3V8A1,1,0,0,0,6,8v3a1,1,0,0,0,2,0Z" style="fill: #0006b8;"/>
</g>
</svg>